<svg width="80" height="80" viewBox="0 0 80 80" fill="none" xmlns="http://www.w3.org/2000/svg">
<g clip-path="url(#clip0_69_4)">
<path d="M75.0556 30.1222V30.4098L75.3042 30.5544C77.8061 32.0096 79.5 34.6852 79.5 37.7778C79.5 40.8704 77.8061 43.546 75.3027 45.0026L75.0542 45.1472V45.4347V66.6667C75.0542 67.2115 74.836 68.2192 74.2228 69.0787C73.6271 69.9137 72.6607 70.611 71.1102 70.6111C70.2148 70.6103 69.3462 70.3052 68.6471 69.7457L68.3732 70.088L68.6471 69.7457L56.8374 60.2971L56.8372 60.297C50.8181 55.4845 43.2608 52.8333 35.5556 52.8333H31.6556H31.2739L31.1732 53.2015C30.7753 54.6579 30.5431 56.1856 30.5431 57.7778C30.5431 61.9303 31.9357 65.7638 34.2773 68.8364C36.2041 71.3647 34.3078 75.0556 31.0778 75.0556H20.7611C19.2813 75.0556 17.8947 74.2618 17.2665 72.9677C15.0343 68.3678 13.7667 63.2228 13.7667 57.7778C13.7667 56.2938 13.8746 54.8353 14.0651 53.3991L14.1401 52.8333H13.5694H8.88889C4.25531 52.8333 0.5 49.078 0.5 44.4445V31.1111C0.5 26.4775 4.25531 22.7222 8.88889 22.7222H35.5556C43.2608 22.7222 50.8181 20.0711 56.8386 15.2586L56.8388 15.2585L68.6485 5.80988L68.6488 5.80963C69.3624 5.23774 70.2335 4.94446 71.1111 4.94446C72.6652 4.94446 73.632 5.65502 74.2279 6.49982C74.8412 7.36955 75.0556 8.3789 75.0556 8.89029V30.1222ZM66.3543 57.8099L67.1667 58.4598V57.4195V18.1361V17.0958L66.3543 17.7457L61.764 21.4179C54.3527 27.347 45.0421 30.6111 35.5556 30.6111H35.0556V31.1111V44.4445V44.9445H35.5556C45.0421 44.9445 54.3527 48.2086 61.764 54.1377L66.3543 57.8099Z" stroke="#951927" stroke-opacity="1" stroke-width="3"/>
</g>
<defs>
<clipPath id="clip0_69_4">
<rect width="80" height="80" fill="white"/>
</clipPath>
</defs>
</svg>
