<svg width="51" height="51" viewBox="0 0 51 51" fill="none" xmlns="http://www.w3.org/2000/svg">
<g clip-path="url(#clip0_76_2)">
<path d="M47.5524 35.9648V3.46476C47.5524 1.90226 46.6149 0.964755 45.0524 0.964755H13.1774C7.86493 0.964755 3.80243 5.02725 3.80243 10.3398V41.5898C3.80243 46.9023 7.86493 50.9648 13.1774 50.9648H45.0524C46.3024 50.9648 47.5524 50.0273 47.5524 48.4648V46.9023C47.5524 46.2773 47.2399 45.6523 46.6149 45.0273C46.3024 43.4648 46.3024 39.0898 46.6149 37.8398C47.2399 37.5273 47.5524 36.9023 47.5524 35.9648ZM16.7985 15.0653L18.8747 17.1415C19.027 17.2939 19.2272 17.37 19.4274 17.37C19.6276 17.37 19.8268 17.2939 19.9802 17.1415C20.2849 16.8368 20.2849 16.3417 19.9802 16.037L17.4001 13.4569C18.3766 11.4159 19.9626 9.74894 21.9284 8.6464C21.3434 9.59757 20.9899 10.705 20.9899 11.9023C20.9899 13.8515 21.9011 15.5712 23.3005 16.7177C22.3581 17.7001 21.7712 19.0273 21.7712 20.496C21.7712 23.1269 23.6306 25.3202 26.1052 25.8437L26.238 22.6493L25.2253 23.3368C25.1579 23.3808 25.0817 23.4042 25.0056 23.4042C24.9079 23.4042 24.8122 23.3671 24.737 23.2978C24.6726 23.2368 24.6309 23.1557 24.6187 23.0679C24.6064 22.98 24.6244 22.8906 24.6696 22.8144L25.5036 21.4169L23.7546 21.0536C23.5729 21.0155 23.4431 20.8554 23.4431 20.6708C23.4431 20.4862 23.5729 20.3261 23.7546 20.288L25.5036 19.9247L24.6696 18.5273C24.5768 18.37 24.6042 18.1689 24.737 18.0439C24.8698 17.9169 25.0729 17.9032 25.2253 18.0038L26.3981 18.8007L26.8493 7.9794C26.8581 7.77042 27.0309 7.60538 27.2399 7.60538C27.4489 7.60538 27.6218 7.77042 27.6306 7.9794L28.0876 18.9452L29.4743 18.0028C29.5485 17.954 29.6368 17.9313 29.7254 17.9386C29.8139 17.9459 29.8974 17.9826 29.9626 18.0429C30.0269 18.1039 30.0687 18.185 30.0809 18.2728C30.0931 18.3606 30.0752 18.45 30.03 18.5263L29.196 19.9237L30.945 20.287C31.1266 20.3251 31.2565 20.4853 31.2565 20.6698C31.2565 20.8544 31.1266 21.0146 30.945 21.0526L29.196 21.4159L30.03 22.8134C30.1227 22.9706 30.0954 23.1718 29.9626 23.2968C29.8874 23.3671 29.7897 23.4032 29.694 23.4032C29.6179 23.4032 29.5417 23.3808 29.4743 23.3358L28.236 22.4941L28.3757 25.8417C30.8493 25.3202 32.7087 23.1269 32.7087 20.496C32.7087 19.0273 32.1218 17.7001 31.1794 16.7177C32.5788 15.5712 33.4899 13.8515 33.4899 11.9023C33.4899 10.705 33.1364 9.59757 32.5524 8.64737C34.5182 9.74893 36.1042 11.4169 37.0807 13.4579L34.5007 16.038C34.196 16.3427 34.196 16.8378 34.5007 17.1425C34.653 17.2948 34.8532 17.371 35.0534 17.371C35.2536 17.371 35.4528 17.2948 35.6061 17.1425L37.6823 15.0663C37.9724 16.0507 38.1774 17.0732 38.1774 18.1523C38.1774 18.203 38.1638 18.2489 38.1628 18.2997L34.5388 21.4706C34.4614 21.538 34.3981 21.62 34.3526 21.7119C34.307 21.8038 34.28 21.9038 34.2732 22.0062C34.2664 22.1085 34.2799 22.2112 34.3129 22.3084C34.3459 22.4055 34.3978 22.4951 34.4655 22.5722C34.5387 22.6561 34.6291 22.7233 34.7305 22.7693C34.8319 22.8153 34.942 22.839 35.0534 22.8388C35.237 22.8388 35.4196 22.7743 35.5681 22.6454L37.8718 20.6298C36.7438 25.4726 32.4245 29.0898 27.2399 29.0898C22.0554 29.0898 17.736 25.4726 16.6091 20.6308L18.9128 22.6464C19.055 22.7714 19.238 22.8402 19.4274 22.8398C19.6442 22.8398 19.861 22.7499 20.0153 22.5732C20.3005 22.248 20.2673 21.7548 19.9421 21.4716L16.3181 18.3007C16.3171 18.2499 16.3034 18.204 16.3034 18.1532C16.3024 17.0732 16.5075 16.0507 16.7985 15.0653ZM40.9899 44.7148H13.1774C11.3024 44.7148 10.0524 43.4648 10.0524 41.5898C10.0524 39.7148 11.6149 38.4648 13.1774 38.4648H40.9899V44.7148Z" fill="#F35C5C"/>
</g>
<defs>
<clipPath id="clip0_76_2">
<rect width="50" height="50" fill="white" transform="translate(0.677429 0.964755)"/>
</clipPath>
</defs>
</svg>
