<svg width="83" height="83" viewBox="0 0 83 83" fill="none" xmlns="http://www.w3.org/2000/svg">
<g clip-path="url(#clip0_69_2)">
<path d="M9.22222 19.9444H10.7222V18.4444V17.2917C10.7222 16.2101 11.599 15.3333 12.6806 15.3333H79.5417C80.6233 15.3333 81.5 16.2101 81.5 17.2917V62.25C81.5 65.2416 79.0749 67.6667 76.0833 67.6667H8.06944C4.44123 67.6667 1.5 64.7254 1.5 61.0972V21.9028C1.5 20.8212 2.37675 19.9444 3.45833 19.9444H9.22222ZM6.91667 23.8611H5.41667V25.3611V61.0972C5.41667 61.8008 5.69616 62.4755 6.19365 62.973C6.69114 63.4705 7.36589 63.75 8.06944 63.75C8.773 63.75 9.44775 63.4705 9.94524 62.973C10.4427 62.4755 10.7222 61.8008 10.7222 61.0972V25.3611V23.8611H9.22222H6.91667ZM20.1736 61.4444H42.0764C43.8597 61.4444 45.3056 59.9986 45.3056 58.2153V57.0625C45.3056 55.2791 43.8597 53.8333 42.0764 53.8333H20.1736C18.3903 53.8333 16.9444 55.2791 16.9444 57.0625V58.2153C16.9444 59.9986 18.3903 61.4444 20.1736 61.4444ZM50.1458 61.4444H72.0486C73.832 61.4444 75.2778 59.9986 75.2778 58.2153V57.0625C75.2778 55.2791 73.832 53.8333 72.0486 53.8333H50.1458C48.3625 53.8333 46.9167 55.2791 46.9167 57.0625V58.2153C46.9167 59.9986 48.3625 61.4444 50.1458 61.4444ZM20.1736 47.6111H42.0764C43.8597 47.6111 45.3056 46.1653 45.3056 44.3819V43.2292C45.3056 41.4458 43.8597 40 42.0764 40H20.1736C18.3903 40 16.9444 41.4458 16.9444 43.2292V44.3819C16.9444 46.1653 18.3903 47.6111 20.1736 47.6111ZM50.1458 47.6111H72.0486C73.832 47.6111 75.2778 46.1653 75.2778 44.3819V43.2292C75.2778 41.4458 73.832 40 72.0486 40H50.1458C48.3625 40 46.9167 41.4458 46.9167 43.2292V44.3819C46.9167 46.1653 48.3625 47.6111 50.1458 47.6111ZM20.1736 33.7778H72.0486C73.832 33.7778 75.2778 32.332 75.2778 30.5486V24.7847C75.2778 23.0014 73.832 21.5556 72.0486 21.5556H20.1736C18.3903 21.5556 16.9444 23.0014 16.9444 24.7847V30.5486C16.9444 32.332 18.3903 33.7778 20.1736 33.7778Z" stroke="#951927" stroke-opacity="0.75" stroke-width="3"/>
</g>
<defs>
<clipPath id="clip0_69_2">
<rect width="83" height="83" fill="white"/>
</clipPath>
</defs>
</svg>
